<svg width="499" height="230" viewBox="0 0 499 230" fill="none" xmlns="http://www.w3.org/2000/svg">
<rect width="499" height="230" fill="white"/>
<path d="M135.061 184.061C135.646 183.475 135.646 182.525 135.061 181.939L125.515 172.393C124.929 171.808 123.979 171.808 123.393 172.393C122.808 172.979 122.808 173.929 123.393 174.515L131.879 183L123.393 191.485C122.808 192.071 122.808 193.021 123.393 193.607C123.979 194.192 124.929 194.192 125.515 193.607L135.061 184.061ZM10 184.5L134 184.5V181.5L10 181.5V184.5Z" fill="black"/>
<path d="M27.2578 173.379C28.918 173.379 30.0768 172.972 30.7344 172.158C31.3919 171.338 31.7207 169.86 31.7207 167.725C31.7207 165.57 31.3919 164.085 30.7344 163.271C30.0833 162.451 28.9245 162.041 27.2578 162.041H26.3203V173.379H27.2578ZM27.2969 160.42C29.5234 160.42 31.1641 161.012 32.2188 162.197C33.2734 163.382 33.8008 165.225 33.8008 167.725C33.8008 170.212 33.2734 172.048 32.2188 173.232C31.1641 174.411 29.5234 175 27.2969 175H24.3379V160.42H27.2969ZM41.9062 169.502H41.3105C40.2624 169.502 39.4714 169.688 38.9375 170.059C38.4102 170.423 38.1465 170.97 38.1465 171.699C38.1465 172.357 38.3451 172.868 38.7422 173.232C39.1393 173.597 39.6895 173.779 40.3926 173.779C41.3822 173.779 42.1602 173.438 42.7266 172.754C43.293 172.064 43.5794 171.113 43.5859 169.902V169.502H41.9062ZM45.3926 168.76V175H43.5859V173.379C43.2018 174.03 42.7168 174.512 42.1309 174.824C41.5514 175.13 40.8451 175.283 40.0117 175.283C38.8984 175.283 38.0098 174.971 37.3457 174.346C36.6816 173.714 36.3496 172.871 36.3496 171.816C36.3496 170.599 36.7565 169.674 37.5703 169.043C38.3906 168.411 39.5918 168.096 41.1738 168.096H43.5859V167.812C43.5794 166.94 43.3581 166.309 42.9219 165.918C42.4857 165.521 41.7891 165.322 40.832 165.322C40.2201 165.322 39.6016 165.41 38.9766 165.586C38.3516 165.762 37.7428 166.019 37.1504 166.357V164.561C37.8145 164.307 38.4492 164.118 39.0547 163.994C39.6667 163.864 40.2591 163.799 40.832 163.799C41.737 163.799 42.5085 163.932 43.1465 164.199C43.791 164.466 44.3118 164.867 44.709 165.4C44.9564 165.726 45.1322 166.13 45.2363 166.611C45.3405 167.087 45.3926 167.803 45.3926 168.76ZM53.0977 160.957V164.062H57.1797V165.459H53.0977V171.396C53.0977 172.204 53.2507 172.767 53.5566 173.086C53.8626 173.405 54.3965 173.564 55.1582 173.564H57.1797V175H54.9824C53.6348 175 52.6842 174.73 52.1309 174.189C51.5775 173.649 51.3008 172.718 51.3008 171.396V165.459H48.3809V164.062H51.3008V160.957H53.0977ZM66.0078 169.502H65.4121C64.3639 169.502 63.5729 169.688 63.0391 170.059C62.5117 170.423 62.248 170.97 62.248 171.699C62.248 172.357 62.4466 172.868 62.8438 173.232C63.2409 173.597 63.791 173.779 64.4941 173.779C65.4837 173.779 66.2617 173.438 66.8281 172.754C67.3945 172.064 67.681 171.113 67.6875 169.902V169.502H66.0078ZM69.4941 168.76V175H67.6875V173.379C67.3034 174.03 66.8184 174.512 66.2324 174.824C65.653 175.13 64.9466 175.283 64.1133 175.283C63 175.283 62.1113 174.971 61.4473 174.346C60.7832 173.714 60.4512 172.871 60.4512 171.816C60.4512 170.599 60.8581 169.674 61.6719 169.043C62.4922 168.411 63.6934 168.096 65.2754 168.096H67.6875V167.812C67.681 166.94 67.4596 166.309 67.0234 165.918C66.5872 165.521 65.8906 165.322 64.9336 165.322C64.3216 165.322 63.7031 165.41 63.0781 165.586C62.4531 165.762 61.8444 166.019 61.252 166.357V164.561C61.916 164.307 62.5508 164.118 63.1562 163.994C63.7682 163.864 64.3607 163.799 64.9336 163.799C65.8385 163.799 66.61 163.932 67.248 164.199C67.8926 164.466 68.4134 164.867 68.8105 165.4C69.0579 165.726 69.2337 166.13 69.3379 166.611C69.4421 167.087 69.4941 167.803 69.4941 168.76Z" fill="#FB9D36"/>
<path d="M135.061 104.061C135.646 103.475 135.646 102.525 135.061 101.939L125.515 92.3934C124.929 91.8076 123.979 91.8076 123.393 92.3934C122.808 92.9792 122.808 93.9289 123.393 94.5147L131.879 103L123.393 111.485C122.808 112.071 122.808 113.021 123.393 113.607C123.979 114.192 124.929 114.192 125.515 113.607L135.061 104.061ZM10 104.5L134 104.5V101.5L10 101.5V104.5Z" fill="black"/>
<path d="M398.061 133.061C398.646 132.475 398.646 131.525 398.061 130.939L388.515 121.393C387.929 120.808 386.979 120.808 386.393 121.393C385.808 121.979 385.808 122.929 386.393 123.515L394.879 132L386.393 140.485C385.808 141.071 385.808 142.021 386.393 142.607C386.979 143.192 387.929 143.192 388.515 142.607L398.061 133.061ZM338 133.5H397V130.5H338V133.5Z" fill="black"/>
<path d="M30.4219 88.1152C30.9297 88.2454 31.3626 88.4928 31.7207 88.8574C32.0788 89.2155 32.5247 89.9349 33.0586 91.0156L35.041 95H32.9219L31.1836 91.3184C30.6823 90.2702 30.2298 89.5964 29.8262 89.2969C29.429 88.9909 28.9082 88.8379 28.2637 88.8379H26.3789V95H24.3965V80.4199H28.459C30.0605 80.4199 31.2878 80.7812 32.1406 81.5039C32.9935 82.2266 33.4199 83.2715 33.4199 84.6387C33.4199 85.6022 33.1562 86.39 32.6289 87.002C32.1081 87.6074 31.3724 87.9785 30.4219 88.1152ZM26.3789 82.041V87.2168H28.5371C29.4811 87.2168 30.1842 87.0052 30.6465 86.582C31.1087 86.1589 31.3398 85.5111 31.3398 84.6387C31.3398 83.7988 31.0924 83.1576 30.5977 82.7148C30.1094 82.2656 29.3965 82.041 28.459 82.041H26.3789ZM36.9551 90.8594V84.082H38.752V90.8594C38.752 91.8424 38.9245 92.5651 39.2695 93.0273C39.6211 93.4896 40.1615 93.7207 40.8906 93.7207C41.737 93.7207 42.3848 93.4245 42.834 92.832C43.2832 92.2331 43.5078 91.377 43.5078 90.2637V84.082H45.3145V95H43.5078V93.3594C43.1888 93.9909 42.7526 94.4694 42.1992 94.7949C41.6523 95.1204 41.0111 95.2832 40.2754 95.2832C39.1556 95.2832 38.3223 94.9186 37.7754 94.1895C37.2285 93.4538 36.9551 92.3438 36.9551 90.8594ZM54.123 91.0449C54.123 91.8522 54.2695 92.4609 54.5625 92.8711C54.862 93.2812 55.3014 93.4863 55.8809 93.4863H57.9805V95H55.7051C54.6309 95 53.7975 94.6582 53.2051 93.9746C52.6191 93.2845 52.3262 92.3079 52.3262 91.0449V81.1523H49.4453V79.7461H54.123V91.0449ZM70.0898 88.6328V89.5117H62.3066V89.5703C62.2546 91.0612 62.5378 92.1322 63.1562 92.7832C63.7812 93.4342 64.6602 93.7598 65.793 93.7598C66.3659 93.7598 66.9648 93.6686 67.5898 93.4863C68.2148 93.304 68.8822 93.0273 69.5918 92.6562V94.4434C68.9082 94.7233 68.2474 94.9316 67.6094 95.0684C66.9779 95.2116 66.3659 95.2832 65.7734 95.2832C64.0742 95.2832 62.7461 94.7754 61.7891 93.7598C60.832 92.7376 60.3535 91.3314 60.3535 89.541C60.3535 87.7962 60.8223 86.403 61.7598 85.3613C62.6973 84.3197 63.9473 83.7988 65.5098 83.7988C66.903 83.7988 68 84.2708 68.8008 85.2148C69.6081 86.1589 70.0378 87.2982 70.0898 88.6328ZM68.293 88.1055C68.2148 87.3503 67.9382 86.6992 67.4629 86.1523C66.9941 85.599 66.3171 85.3223 65.4316 85.3223C64.5658 85.3223 63.8529 85.6087 63.293 86.1816C62.7331 86.7546 62.4271 87.3991 62.375 88.1152L68.293 88.1055ZM80.7051 84.4434V86.2012C80.1908 85.9017 79.6732 85.6771 79.1523 85.5273C78.6315 85.3776 78.1009 85.3027 77.5605 85.3027C76.7467 85.3027 76.138 85.4362 75.7344 85.7031C75.3372 85.9635 75.1387 86.3639 75.1387 86.9043C75.1387 87.3926 75.2884 87.7572 75.5879 87.998C75.8874 88.2389 76.6328 88.4733 77.8242 88.7012L78.5469 88.8379C79.4388 89.0072 80.1126 89.3457 80.5684 89.8535C81.0306 90.3613 81.2617 91.0221 81.2617 91.8359C81.2617 92.9167 80.8776 93.763 80.1094 94.375C79.3411 94.9805 78.2734 95.2832 76.9062 95.2832C76.3659 95.2832 75.7995 95.2246 75.207 95.1074C74.6146 94.9967 73.9733 94.8275 73.2832 94.5996V92.7441C73.9538 93.0892 74.5951 93.3496 75.207 93.5254C75.819 93.6947 76.3984 93.7793 76.9453 93.7793C77.7396 93.7793 78.3548 93.6198 78.791 93.3008C79.2272 92.9753 79.4453 92.5228 79.4453 91.9434C79.4453 91.11 78.6478 90.5339 77.0527 90.2148L76.9746 90.1953L76.3008 90.0586C75.2656 89.8568 74.5104 89.5182 74.0352 89.043C73.5599 88.5612 73.3223 87.9069 73.3223 87.0801C73.3223 86.0319 73.6771 85.2246 74.3867 84.6582C75.0964 84.0853 76.1087 83.7988 77.4238 83.7988C78.0098 83.7988 78.5729 83.8542 79.1133 83.9648C79.6536 84.069 80.1842 84.2285 80.7051 84.4434Z" fill="#9CDCFE"/>
<path d="M413.016 124.158L410.936 131.619H415.096L413.016 124.158ZM411.824 122.42H414.217L418.68 137H416.639L415.564 133.201H410.457L409.402 137H407.361L411.824 122.42ZM429.314 130.223V137H427.508V130.223C427.508 129.24 427.335 128.517 426.99 128.055C426.645 127.592 426.105 127.361 425.369 127.361C424.529 127.361 423.882 127.661 423.426 128.26C422.977 128.852 422.752 129.705 422.752 130.818V137H420.955V126.062H422.752V127.703C423.071 127.078 423.504 126.606 424.051 126.287C424.598 125.962 425.245 125.799 425.994 125.799C427.107 125.799 427.938 126.167 428.484 126.902C429.038 127.632 429.314 128.738 429.314 130.223ZM440.604 126.443V128.201C440.089 127.902 439.572 127.677 439.051 127.527C438.53 127.378 437.999 127.303 437.459 127.303C436.645 127.303 436.036 127.436 435.633 127.703C435.236 127.964 435.037 128.364 435.037 128.904C435.037 129.393 435.187 129.757 435.486 129.998C435.786 130.239 436.531 130.473 437.723 130.701L438.445 130.838C439.337 131.007 440.011 131.346 440.467 131.854C440.929 132.361 441.16 133.022 441.16 133.836C441.16 134.917 440.776 135.763 440.008 136.375C439.24 136.98 438.172 137.283 436.805 137.283C436.264 137.283 435.698 137.225 435.105 137.107C434.513 136.997 433.872 136.827 433.182 136.6V134.744C433.852 135.089 434.493 135.35 435.105 135.525C435.717 135.695 436.297 135.779 436.844 135.779C437.638 135.779 438.253 135.62 438.689 135.301C439.126 134.975 439.344 134.523 439.344 133.943C439.344 133.11 438.546 132.534 436.951 132.215L436.873 132.195L436.199 132.059C435.164 131.857 434.409 131.518 433.934 131.043C433.458 130.561 433.221 129.907 433.221 129.08C433.221 128.032 433.576 127.225 434.285 126.658C434.995 126.085 436.007 125.799 437.322 125.799C437.908 125.799 438.471 125.854 439.012 125.965C439.552 126.069 440.083 126.229 440.604 126.443ZM443.152 126.062H444.93L446.834 134.9L448.396 129.256H449.93L451.512 134.9L453.416 126.062H455.193L452.635 137H450.916L449.168 131.004L447.43 137H445.711L443.152 126.062ZM466.141 130.633V131.512H458.357V131.57C458.305 133.061 458.589 134.132 459.207 134.783C459.832 135.434 460.711 135.76 461.844 135.76C462.417 135.76 463.016 135.669 463.641 135.486C464.266 135.304 464.933 135.027 465.643 134.656V136.443C464.959 136.723 464.298 136.932 463.66 137.068C463.029 137.212 462.417 137.283 461.824 137.283C460.125 137.283 458.797 136.775 457.84 135.76C456.883 134.738 456.404 133.331 456.404 131.541C456.404 129.796 456.873 128.403 457.811 127.361C458.748 126.32 459.998 125.799 461.561 125.799C462.954 125.799 464.051 126.271 464.852 127.215C465.659 128.159 466.089 129.298 466.141 130.633ZM464.344 130.105C464.266 129.35 463.989 128.699 463.514 128.152C463.045 127.599 462.368 127.322 461.482 127.322C460.617 127.322 459.904 127.609 459.344 128.182C458.784 128.755 458.478 129.399 458.426 130.115L464.344 130.105ZM478.533 128.318C478.149 128.019 477.758 127.801 477.361 127.664C476.964 127.527 476.528 127.459 476.053 127.459C474.933 127.459 474.077 127.811 473.484 128.514C472.892 129.217 472.596 130.232 472.596 131.561V137H470.789V126.062H472.596V128.201C472.895 127.426 473.354 126.834 473.973 126.424C474.598 126.007 475.337 125.799 476.189 125.799C476.632 125.799 477.046 125.854 477.43 125.965C477.814 126.076 478.182 126.248 478.533 126.482V128.318ZM488.807 126.443V128.201C488.292 127.902 487.775 127.677 487.254 127.527C486.733 127.378 486.202 127.303 485.662 127.303C484.848 127.303 484.24 127.436 483.836 127.703C483.439 127.964 483.24 128.364 483.24 128.904C483.24 129.393 483.39 129.757 483.689 129.998C483.989 130.239 484.734 130.473 485.926 130.701L486.648 130.838C487.54 131.007 488.214 131.346 488.67 131.854C489.132 132.361 489.363 133.022 489.363 133.836C489.363 134.917 488.979 135.763 488.211 136.375C487.443 136.98 486.375 137.283 485.008 137.283C484.467 137.283 483.901 137.225 483.309 137.107C482.716 136.997 482.075 136.827 481.385 136.6V134.744C482.055 135.089 482.697 135.35 483.309 135.525C483.921 135.695 484.5 135.779 485.047 135.779C485.841 135.779 486.456 135.62 486.893 135.301C487.329 134.975 487.547 134.523 487.547 133.943C487.547 133.11 486.749 132.534 485.154 132.215L485.076 132.195L484.402 132.059C483.367 131.857 482.612 131.518 482.137 131.043C481.661 130.561 481.424 129.907 481.424 129.08C481.424 128.032 481.779 127.225 482.488 126.658C483.198 126.085 484.21 125.799 485.525 125.799C486.111 125.799 486.674 125.854 487.215 125.965C487.755 126.069 488.286 126.229 488.807 126.443Z" fill="#C586C0"/>
<path d="M103.059 33.4961C102.512 33.7773 101.938 33.9883 101.336 34.1289C100.734 34.2695 100.102 34.3398 99.4375 34.3398C97.0781 34.3398 95.2773 33.5625 94.0352 32.0078C92.793 30.4531 92.1719 28.207 92.1719 25.2695C92.1719 22.3242 92.793 20.0742 94.0352 18.5195C95.2773 16.9648 97.0781 16.1875 99.4375 16.1875C100.102 16.1875 100.738 16.2578 101.348 16.3984C101.957 16.5391 102.527 16.75 103.059 17.0312V20.875C102.465 20.3281 101.887 19.9297 101.324 19.6797C100.77 19.4219 100.195 19.293 99.6016 19.293C98.3359 19.293 97.3789 19.7969 96.7305 20.8047C96.0898 21.8047 95.7695 23.293 95.7695 25.2695C95.7695 27.2383 96.0898 28.7266 96.7305 29.7344C97.3789 30.7344 98.3359 31.2344 99.6016 31.2344C100.195 31.2344 100.77 31.1094 101.324 30.8594C101.887 30.6016 102.465 30.1992 103.059 29.6523V33.4961ZM109.387 28.5273V18.4023H105.906V15.7656H112.82V28.5273C112.82 29.5586 112.98 30.2891 113.301 30.7188C113.621 31.1484 114.164 31.3633 114.93 31.3633H117.672V34H113.969C112.336 34 111.164 33.5781 110.453 32.7344C109.742 31.8906 109.387 30.4883 109.387 28.5273ZM127.516 27.8359C126.234 27.8359 125.34 28 124.832 28.3281C124.324 28.6562 124.07 29.2188 124.07 30.0156C124.07 30.6094 124.246 31.082 124.598 31.4336C124.949 31.7852 125.426 31.9609 126.027 31.9609C126.934 31.9609 127.637 31.6211 128.137 30.9414C128.637 30.2539 128.887 29.2969 128.887 28.0703V27.8359H127.516ZM132.297 26.5117V34H128.887V32.5352C128.473 33.1133 127.941 33.5586 127.293 33.8711C126.645 34.1836 125.93 34.3398 125.148 34.3398C123.656 34.3398 122.492 33.9453 121.656 33.1562C120.828 32.3672 120.414 31.2656 120.414 29.8516C120.414 28.3203 120.91 27.1914 121.902 26.4648C122.895 25.7305 124.43 25.3633 126.508 25.3633H128.887V24.7891C128.887 24.2344 128.684 23.8164 128.277 23.5352C127.879 23.2461 127.289 23.1016 126.508 23.1016C125.688 23.1016 124.891 23.207 124.117 23.418C123.352 23.6211 122.551 23.9492 121.715 24.4023V21.4727C122.473 21.1602 123.242 20.9297 124.023 20.7812C124.805 20.6328 125.633 20.5586 126.508 20.5586C128.641 20.5586 130.137 20.9922 130.996 21.8594C131.863 22.7266 132.297 24.2773 132.297 26.5117ZM145.387 21.2852V24.2852C144.754 23.8789 144.094 23.5742 143.406 23.3711C142.727 23.1602 142.043 23.0547 141.355 23.0547C140.59 23.0547 140.012 23.168 139.621 23.3945C139.23 23.6133 139.035 23.9414 139.035 24.3789C139.035 25.0039 139.871 25.5117 141.543 25.9023L141.672 25.9375L142.656 26.1719C143.906 26.4688 144.82 26.9492 145.398 27.6133C145.984 28.2695 146.277 29.1602 146.277 30.2852C146.277 31.6367 145.832 32.6523 144.941 33.332C144.059 34.0039 142.727 34.3398 140.945 34.3398C140.156 34.3398 139.348 34.2695 138.52 34.1289C137.691 33.9961 136.852 33.793 136 33.5195V30.5195C136.758 30.9492 137.527 31.2773 138.309 31.5039C139.098 31.7305 139.859 31.8438 140.594 31.8438C141.398 31.8438 142.008 31.7266 142.422 31.4922C142.836 31.2578 143.043 30.918 143.043 30.4727C143.043 30.0352 142.895 29.6992 142.598 29.4648C142.309 29.2305 141.613 28.9805 140.512 28.7148L139.562 28.5039C138.25 28.207 137.293 27.7422 136.691 27.1094C136.09 26.4766 135.789 25.6289 135.789 24.5664C135.789 23.3008 136.246 22.3164 137.16 21.6133C138.074 20.9102 139.359 20.5586 141.016 20.5586C141.758 20.5586 142.496 20.6211 143.23 20.7461C143.973 20.8633 144.691 21.043 145.387 21.2852ZM159.848 21.2852V24.2852C159.215 23.8789 158.555 23.5742 157.867 23.3711C157.188 23.1602 156.504 23.0547 155.816 23.0547C155.051 23.0547 154.473 23.168 154.082 23.3945C153.691 23.6133 153.496 23.9414 153.496 24.3789C153.496 25.0039 154.332 25.5117 156.004 25.9023L156.133 25.9375L157.117 26.1719C158.367 26.4688 159.281 26.9492 159.859 27.6133C160.445 28.2695 160.738 29.1602 160.738 30.2852C160.738 31.6367 160.293 32.6523 159.402 33.332C158.52 34.0039 157.188 34.3398 155.406 34.3398C154.617 34.3398 153.809 34.2695 152.98 34.1289C152.152 33.9961 151.312 33.793 150.461 33.5195V30.5195C151.219 30.9492 151.988 31.2773 152.77 31.5039C153.559 31.7305 154.32 31.8438 155.055 31.8438C155.859 31.8438 156.469 31.7266 156.883 31.4922C157.297 31.2578 157.504 30.918 157.504 30.4727C157.504 30.0352 157.355 29.6992 157.059 29.4648C156.77 29.2305 156.074 28.9805 154.973 28.7148L154.023 28.5039C152.711 28.207 151.754 27.7422 151.152 27.1094C150.551 26.4766 150.25 25.6289 150.25 24.5664C150.25 23.3008 150.707 22.3164 151.621 21.6133C152.535 20.9102 153.82 20.5586 155.477 20.5586C156.219 20.5586 156.957 20.6211 157.691 20.7461C158.434 20.8633 159.152 21.043 159.848 21.2852ZM165.285 20.875H172.082V31.3633H176.348V34H164.371V31.3633H168.648V23.5117H165.285V20.875ZM168.648 14.4883H172.082V18.4961H168.648V14.4883ZM189.59 33.332C189.012 33.668 188.391 33.918 187.727 34.082C187.062 34.2539 186.348 34.3398 185.582 34.3398C183.559 34.3398 181.977 33.7305 180.836 32.5117C179.695 31.293 179.125 29.6055 179.125 27.4492C179.125 25.2852 179.699 23.5938 180.848 22.375C181.996 21.1484 183.582 20.5352 185.605 20.5352C186.309 20.5352 186.984 20.6172 187.633 20.7812C188.289 20.9453 188.941 21.1992 189.59 21.543V24.6836C189.09 24.2539 188.539 23.9258 187.938 23.6992C187.344 23.4648 186.727 23.3477 186.086 23.3477C184.969 23.3477 184.109 23.7031 183.508 24.4141C182.906 25.125 182.605 26.1367 182.605 27.4492C182.605 28.7617 182.906 29.7695 183.508 30.4727C184.109 31.1758 184.969 31.5273 186.086 31.5273C186.75 31.5273 187.371 31.418 187.949 31.1992C188.527 30.9727 189.074 30.6328 189.59 30.1797V33.332ZM199.82 27.8359C198.539 27.8359 197.645 28 197.137 28.3281C196.629 28.6562 196.375 29.2188 196.375 30.0156C196.375 30.6094 196.551 31.082 196.902 31.4336C197.254 31.7852 197.73 31.9609 198.332 31.9609C199.238 31.9609 199.941 31.6211 200.441 30.9414C200.941 30.2539 201.191 29.2969 201.191 28.0703V27.8359H199.82ZM204.602 26.5117V34H201.191V32.5352C200.777 33.1133 200.246 33.5586 199.598 33.8711C198.949 34.1836 198.234 34.3398 197.453 34.3398C195.961 34.3398 194.797 33.9453 193.961 33.1562C193.133 32.3672 192.719 31.2656 192.719 29.8516C192.719 28.3203 193.215 27.1914 194.207 26.4648C195.199 25.7305 196.734 25.3633 198.812 25.3633H201.191V24.7891C201.191 24.2344 200.988 23.8164 200.582 23.5352C200.184 23.2461 199.594 23.1016 198.812 23.1016C197.992 23.1016 197.195 23.207 196.422 23.418C195.656 23.6211 194.855 23.9492 194.02 24.4023V21.4727C194.777 21.1602 195.547 20.9297 196.328 20.7812C197.109 20.6328 197.938 20.5586 198.812 20.5586C200.945 20.5586 202.441 20.9922 203.301 21.8594C204.168 22.7266 204.602 24.2773 204.602 26.5117ZM210.613 28.5273V18.4023H207.133V15.7656H214.047V28.5273C214.047 29.5586 214.207 30.2891 214.527 30.7188C214.848 31.1484 215.391 31.3633 216.156 31.3633H218.898V34H215.195C213.562 34 212.391 33.5781 211.68 32.7344C210.969 31.8906 210.613 30.4883 210.613 28.5273ZM240.355 19.4102V24.543H241.773C242.906 24.543 243.699 24.3516 244.152 23.9688C244.613 23.5859 244.844 22.9219 244.844 21.9766C244.844 21.0312 244.613 20.3672 244.152 19.9844C243.699 19.6016 242.906 19.4102 241.773 19.4102H240.355ZM236.898 16.5039H241.645C244.059 16.5039 245.793 16.9336 246.848 17.793C247.91 18.6523 248.441 20.0469 248.441 21.9766C248.441 23.9062 247.91 25.3008 246.848 26.1602C245.793 27.0195 244.059 27.4492 241.645 27.4492H240.355V34H236.898V16.5039ZM262.949 24.4961C262.574 24.1523 262.133 23.8945 261.625 23.7227C261.125 23.5508 260.574 23.4648 259.973 23.4648C259.246 23.4648 258.609 23.5938 258.062 23.8516C257.523 24.1016 257.105 24.4688 256.809 24.9531C256.621 25.25 256.488 25.6094 256.41 26.0312C256.34 26.4531 256.305 27.0938 256.305 27.9531V34H252.871V20.875H256.305V22.9141C256.641 22.1641 257.156 21.5859 257.852 21.1797C258.547 20.7656 259.359 20.5586 260.289 20.5586C260.758 20.5586 261.215 20.6172 261.66 20.7344C262.113 20.8438 262.543 21.0078 262.949 21.2266V24.4961ZM271.141 23.3477C270.32 23.3477 269.676 23.7109 269.207 24.4375C268.738 25.1562 268.504 26.1602 268.504 27.4492C268.504 28.7383 268.738 29.7461 269.207 30.4727C269.676 31.1914 270.32 31.5508 271.141 31.5508C271.969 31.5508 272.617 31.1914 273.086 30.4727C273.555 29.7461 273.789 28.7383 273.789 27.4492C273.789 26.1602 273.555 25.1562 273.086 24.4375C272.617 23.7109 271.969 23.3477 271.141 23.3477ZM265.07 27.4492C265.07 25.332 265.617 23.6562 266.711 22.4219C267.812 21.1797 269.289 20.5586 271.141 20.5586C273 20.5586 274.477 21.1797 275.57 22.4219C276.672 23.6562 277.223 25.332 277.223 27.4492C277.223 29.5664 276.672 31.2461 275.57 32.4883C274.477 33.7227 273 34.3398 271.141 34.3398C269.289 34.3398 267.812 33.7227 266.711 32.4883C265.617 31.2461 265.07 29.5664 265.07 27.4492ZM287.793 27.2266C287.793 26.0547 287.57 25.1172 287.125 24.4141C286.68 23.7031 286.094 23.3477 285.367 23.3477C284.648 23.3477 284.066 23.6992 283.621 24.4023C283.184 25.1055 282.965 26.0469 282.965 27.2266C282.965 28.4141 283.184 29.3594 283.621 30.0625C284.066 30.7656 284.648 31.1172 285.367 31.1172C286.094 31.1172 286.68 30.7656 287.125 30.0625C287.57 29.3516 287.793 28.4062 287.793 27.2266ZM291.227 33.0156C291.227 35.1172 290.75 36.6328 289.797 37.5625C288.852 38.5 287.312 38.9688 285.18 38.9688C284.461 38.9688 283.75 38.9141 283.047 38.8047C282.344 38.7031 281.629 38.543 280.902 38.3242V35.1719C281.551 35.5312 282.211 35.7969 282.883 35.9688C283.555 36.1406 284.246 36.2266 284.957 36.2266C285.926 36.2266 286.641 35.9961 287.102 35.5352C287.562 35.082 287.793 34.3711 287.793 33.4023V31.9844C287.457 32.6094 287.012 33.0742 286.457 33.3789C285.902 33.6836 285.227 33.8359 284.43 33.8359C282.93 33.8359 281.738 33.25 280.855 32.0781C279.973 30.9062 279.531 29.3164 279.531 27.3086C279.531 25.2305 279.973 23.582 280.855 22.3633C281.738 21.1445 282.922 20.5352 284.406 20.5352C285.156 20.5352 285.824 20.7109 286.41 21.0625C286.996 21.4141 287.457 21.9102 287.793 22.5508V20.875H291.227V33.0156ZM301.047 27.8359C299.766 27.8359 298.871 28 298.363 28.3281C297.855 28.6562 297.602 29.2188 297.602 30.0156C297.602 30.6094 297.777 31.082 298.129 31.4336C298.48 31.7852 298.957 31.9609 299.559 31.9609C300.465 31.9609 301.168 31.6211 301.668 30.9414C302.168 30.2539 302.418 29.2969 302.418 28.0703V27.8359H301.047ZM305.828 26.5117V34H302.418V32.5352C302.004 33.1133 301.473 33.5586 300.824 33.8711C300.176 34.1836 299.461 34.3398 298.68 34.3398C297.188 34.3398 296.023 33.9453 295.188 33.1562C294.359 32.3672 293.945 31.2656 293.945 29.8516C293.945 28.3203 294.441 27.1914 295.434 26.4648C296.426 25.7305 297.961 25.3633 300.039 25.3633H302.418V24.7891C302.418 24.2344 302.215 23.8164 301.809 23.5352C301.41 23.2461 300.82 23.1016 300.039 23.1016C299.219 23.1016 298.422 23.207 297.648 23.418C296.883 23.6211 296.082 23.9492 295.246 24.4023V21.4727C296.004 21.1602 296.773 20.9297 297.555 20.7812C298.336 20.6328 299.164 20.5586 300.039 20.5586C302.172 20.5586 303.668 20.9922 304.527 21.8594C305.395 22.7266 305.828 24.2773 305.828 26.5117ZM315.391 22.1875C315.648 21.6328 315.977 21.2227 316.375 20.957C316.773 20.6914 317.262 20.5586 317.84 20.5586C318.973 20.5586 319.754 20.9492 320.184 21.7305C320.621 22.5117 320.84 24.1367 320.84 26.6055V34H318.027V25.5742C318.027 24.5977 317.953 23.9453 317.805 23.6172C317.656 23.2891 317.387 23.125 316.996 23.125C316.605 23.125 316.332 23.293 316.176 23.6289C316.02 23.9648 315.941 24.6133 315.941 25.5742V34H313.164V25.5742C313.164 24.6133 313.086 23.9648 312.93 23.6289C312.773 23.293 312.5 23.125 312.109 23.125C311.719 23.125 311.449 23.2891 311.301 23.6172C311.152 23.9453 311.078 24.5977 311.078 25.5742V34H308.266V20.875H310.762V22.2344C310.957 21.7188 311.27 21.3125 311.699 21.0156C312.129 20.7109 312.609 20.5586 313.141 20.5586C313.672 20.5586 314.156 20.7188 314.594 21.0391C315.031 21.3516 315.297 21.7344 315.391 22.1875ZM329.852 22.1875C330.109 21.6328 330.438 21.2227 330.836 20.957C331.234 20.6914 331.723 20.5586 332.301 20.5586C333.434 20.5586 334.215 20.9492 334.645 21.7305C335.082 22.5117 335.301 24.1367 335.301 26.6055V34H332.488V25.5742C332.488 24.5977 332.414 23.9453 332.266 23.6172C332.117 23.2891 331.848 23.125 331.457 23.125C331.066 23.125 330.793 23.293 330.637 23.6289C330.48 23.9648 330.402 24.6133 330.402 25.5742V34H327.625V25.5742C327.625 24.6133 327.547 23.9648 327.391 23.6289C327.234 23.293 326.961 23.125 326.57 23.125C326.18 23.125 325.91 23.2891 325.762 23.6172C325.613 23.9453 325.539 24.5977 325.539 25.5742V34H322.727V20.875H325.223V22.2344C325.418 21.7188 325.73 21.3125 326.16 21.0156C326.59 20.7109 327.07 20.5586 327.602 20.5586C328.133 20.5586 328.617 20.7188 329.055 21.0391C329.492 21.3516 329.758 21.7344 329.852 22.1875ZM338.816 20.875H345.613V31.3633H349.879V34H337.902V31.3633H342.18V23.5117H338.816V20.875ZM342.18 14.4883H345.613V18.4961H342.18V14.4883ZM363.238 25.4805V34H359.828V26.0078C359.828 25.0547 359.691 24.375 359.418 23.9688C359.152 23.5547 358.715 23.3477 358.105 23.3477C357.488 23.3477 357 23.625 356.641 24.1797C356.289 24.7344 356.113 25.5039 356.113 26.4883V34H352.703V20.875H356.113V22.8438C356.355 22.1172 356.77 21.5547 357.355 21.1562C357.941 20.7578 358.648 20.5586 359.477 20.5586C360.719 20.5586 361.656 20.9727 362.289 21.8008C362.922 22.6211 363.238 23.8477 363.238 25.4805ZM374.559 27.2266C374.559 26.0547 374.336 25.1172 373.891 24.4141C373.445 23.7031 372.859 23.3477 372.133 23.3477C371.414 23.3477 370.832 23.6992 370.387 24.4023C369.949 25.1055 369.73 26.0469 369.73 27.2266C369.73 28.4141 369.949 29.3594 370.387 30.0625C370.832 30.7656 371.414 31.1172 372.133 31.1172C372.859 31.1172 373.445 30.7656 373.891 30.0625C374.336 29.3516 374.559 28.4062 374.559 27.2266ZM377.992 33.0156C377.992 35.1172 377.516 36.6328 376.562 37.5625C375.617 38.5 374.078 38.9688 371.945 38.9688C371.227 38.9688 370.516 38.9141 369.812 38.8047C369.109 38.7031 368.395 38.543 367.668 38.3242V35.1719C368.316 35.5312 368.977 35.7969 369.648 35.9688C370.32 36.1406 371.012 36.2266 371.723 36.2266C372.691 36.2266 373.406 35.9961 373.867 35.5352C374.328 35.082 374.559 34.3711 374.559 33.4023V31.9844C374.223 32.6094 373.777 33.0742 373.223 33.3789C372.668 33.6836 371.992 33.8359 371.195 33.8359C369.695 33.8359 368.504 33.25 367.621 32.0781C366.738 30.9062 366.297 29.3164 366.297 27.3086C366.297 25.2305 366.738 23.582 367.621 22.3633C368.504 21.1445 369.688 20.5352 371.172 20.5352C371.922 20.5352 372.59 20.7109 373.176 21.0625C373.762 21.4141 374.223 21.9102 374.559 22.5508V20.875H377.992V33.0156Z" fill="black"/>
<rect x="143" y="47" width="184" height="170" rx="9" fill="#B5CEA8" stroke="black" stroke-width="2"/>
</svg>
