<svg width="499" height="230" viewBox="0 0 499 230" fill="none" xmlns="http://www.w3.org/2000/svg">
<rect width="499" height="230" fill="white"/>
<path d="M135.768 184.768C136.744 183.791 136.744 182.209 135.768 181.232L119.858 165.322C118.882 164.346 117.299 164.346 116.322 165.322C115.346 166.299 115.346 167.882 116.322 168.858L130.464 183L116.322 197.142C115.346 198.118 115.346 199.701 116.322 200.678C117.299 201.654 118.882 201.654 119.858 200.678L135.768 184.768ZM10 185.5L134 185.5V180.5L10 180.5V185.5Z" fill="black"/>
<path d="M29.0156 162.158L26.9355 169.619H31.0957L29.0156 162.158ZM27.8242 160.42H30.2168L34.6797 175H32.6387L31.5645 171.201H26.457L25.4023 175H23.3613L27.8242 160.42ZM45.3145 168.223V175H43.5078V168.223C43.5078 167.24 43.3353 166.517 42.9902 166.055C42.6452 165.592 42.1048 165.361 41.3691 165.361C40.5293 165.361 39.8815 165.661 39.4258 166.26C38.9766 166.852 38.752 167.705 38.752 168.818V175H36.9551V164.062H38.752V165.703C39.071 165.078 39.5039 164.606 40.0508 164.287C40.5977 163.962 41.2454 163.799 41.9941 163.799C43.1074 163.799 43.9375 164.167 44.4844 164.902C45.0378 165.632 45.3145 166.738 45.3145 168.223ZM56.6035 164.443V166.201C56.0892 165.902 55.5716 165.677 55.0508 165.527C54.5299 165.378 53.9993 165.303 53.459 165.303C52.6452 165.303 52.0365 165.436 51.6328 165.703C51.2357 165.964 51.0371 166.364 51.0371 166.904C51.0371 167.393 51.1868 167.757 51.4863 167.998C51.7858 168.239 52.5312 168.473 53.7227 168.701L54.4453 168.838C55.3372 169.007 56.0111 169.346 56.4668 169.854C56.929 170.361 57.1602 171.022 57.1602 171.836C57.1602 172.917 56.776 173.763 56.0078 174.375C55.2396 174.98 54.1719 175.283 52.8047 175.283C52.2643 175.283 51.6979 175.225 51.1055 175.107C50.513 174.997 49.8717 174.827 49.1816 174.6V172.744C49.8522 173.089 50.4935 173.35 51.1055 173.525C51.7174 173.695 52.2969 173.779 52.8438 173.779C53.638 173.779 54.2533 173.62 54.6895 173.301C55.1257 172.975 55.3438 172.523 55.3438 171.943C55.3438 171.11 54.5462 170.534 52.9512 170.215L52.873 170.195L52.1992 170.059C51.1641 169.857 50.4089 169.518 49.9336 169.043C49.4583 168.561 49.2207 167.907 49.2207 167.08C49.2207 166.032 49.5755 165.225 50.2852 164.658C50.9948 164.085 52.0072 163.799 53.3223 163.799C53.9082 163.799 54.4714 163.854 55.0117 163.965C55.5521 164.069 56.0827 164.229 56.6035 164.443ZM59.1523 164.062H60.9297L62.834 172.9L64.3965 167.256H65.9297L67.5117 172.9L69.416 164.062H71.1934L68.6348 175H66.916L65.168 169.004L63.4297 175H61.7109L59.1523 164.062ZM82.1406 168.633V169.512H74.3574V169.57C74.3053 171.061 74.5885 172.132 75.207 172.783C75.832 173.434 76.7109 173.76 77.8438 173.76C78.4167 173.76 79.0156 173.669 79.6406 173.486C80.2656 173.304 80.9329 173.027 81.6426 172.656V174.443C80.959 174.723 80.2982 174.932 79.6602 175.068C79.0286 175.212 78.4167 175.283 77.8242 175.283C76.125 175.283 74.7969 174.775 73.8398 173.76C72.8828 172.738 72.4043 171.331 72.4043 169.541C72.4043 167.796 72.873 166.403 73.8105 165.361C74.748 164.32 75.998 163.799 77.5605 163.799C78.9538 163.799 80.0508 164.271 80.8516 165.215C81.6589 166.159 82.0885 167.298 82.1406 168.633ZM80.3438 168.105C80.2656 167.35 79.9889 166.699 79.5137 166.152C79.0449 165.599 78.3678 165.322 77.4824 165.322C76.6165 165.322 75.9036 165.609 75.3438 166.182C74.7839 166.755 74.4779 167.399 74.4258 168.115L80.3438 168.105ZM94.5332 166.318C94.1491 166.019 93.7585 165.801 93.3613 165.664C92.9642 165.527 92.528 165.459 92.0527 165.459C90.9329 165.459 90.0768 165.811 89.4844 166.514C88.8919 167.217 88.5957 168.232 88.5957 169.561V175H86.7891V164.062H88.5957V166.201C88.8952 165.426 89.3542 164.834 89.9727 164.424C90.5977 164.007 91.3366 163.799 92.1895 163.799C92.6322 163.799 93.0456 163.854 93.4297 163.965C93.8138 164.076 94.1816 164.248 94.5332 164.482V166.318ZM104.807 164.443V166.201C104.292 165.902 103.775 165.677 103.254 165.527C102.733 165.378 102.202 165.303 101.662 165.303C100.848 165.303 100.24 165.436 99.8359 165.703C99.4388 165.964 99.2402 166.364 99.2402 166.904C99.2402 167.393 99.39 167.757 99.6895 167.998C99.9889 168.239 100.734 168.473 101.926 168.701L102.648 168.838C103.54 169.007 104.214 169.346 104.67 169.854C105.132 170.361 105.363 171.022 105.363 171.836C105.363 172.917 104.979 173.763 104.211 174.375C103.443 174.98 102.375 175.283 101.008 175.283C100.467 175.283 99.901 175.225 99.3086 175.107C98.7161 174.997 98.0749 174.827 97.3848 174.6V172.744C98.0553 173.089 98.6966 173.35 99.3086 173.525C99.9206 173.695 100.5 173.779 101.047 173.779C101.841 173.779 102.456 173.62 102.893 173.301C103.329 172.975 103.547 172.523 103.547 171.943C103.547 171.11 102.749 170.534 101.154 170.215L101.076 170.195L100.402 170.059C99.3672 169.857 98.612 169.518 98.1367 169.043C97.6615 168.561 97.4238 167.907 97.4238 167.08C97.4238 166.032 97.7786 165.225 98.4883 164.658C99.1979 164.085 100.21 163.799 101.525 163.799C102.111 163.799 102.674 163.854 103.215 163.965C103.755 164.069 104.286 164.229 104.807 164.443Z" fill="black"/>
<path d="M135.768 104.768C136.744 103.791 136.744 102.209 135.768 101.232L119.858 85.3223C118.882 84.346 117.299 84.346 116.322 85.3223C115.346 86.2986 115.346 87.8816 116.322 88.8579L130.464 103L116.322 117.142C115.346 118.118 115.346 119.701 116.322 120.678C117.299 121.654 118.882 121.654 119.858 120.678L135.768 104.768ZM10 105.5L134 105.5V100.5L10 100.5V105.5Z" fill="black"/>
<path d="M398.768 133.768C399.744 132.791 399.744 131.209 398.768 130.232L382.858 114.322C381.882 113.346 380.299 113.346 379.322 114.322C378.346 115.299 378.346 116.882 379.322 117.858L393.464 132L379.322 146.142C378.346 147.118 378.346 148.701 379.322 149.678C380.299 150.654 381.882 150.654 382.858 149.678L398.768 133.768ZM338 134.5H397V129.5H338V134.5Z" fill="black"/>
<path d="M27.2578 93.3789C28.918 93.3789 30.0768 92.972 30.7344 92.1582C31.3919 91.3379 31.7207 89.86 31.7207 87.7246C31.7207 85.5697 31.3919 84.0853 30.7344 83.2715C30.0833 82.4512 28.9245 82.041 27.2578 82.041H26.3203V93.3789H27.2578ZM27.2969 80.4199C29.5234 80.4199 31.1641 81.0124 32.2188 82.1973C33.2734 83.3822 33.8008 85.2246 33.8008 87.7246C33.8008 90.2116 33.2734 92.0475 32.2188 93.2324C31.1641 94.4108 29.5234 95 27.2969 95H24.3379V80.4199H27.2969ZM41.9062 89.502H41.3105C40.2624 89.502 39.4714 89.6875 38.9375 90.0586C38.4102 90.4232 38.1465 90.9701 38.1465 91.6992C38.1465 92.3568 38.3451 92.8678 38.7422 93.2324C39.1393 93.597 39.6895 93.7793 40.3926 93.7793C41.3822 93.7793 42.1602 93.4375 42.7266 92.7539C43.293 92.0638 43.5794 91.1133 43.5859 89.9023V89.502H41.9062ZM45.3926 88.7598V95H43.5859V93.3789C43.2018 94.0299 42.7168 94.5117 42.1309 94.8242C41.5514 95.1302 40.8451 95.2832 40.0117 95.2832C38.8984 95.2832 38.0098 94.9707 37.3457 94.3457C36.6816 93.7142 36.3496 92.8711 36.3496 91.8164C36.3496 90.599 36.7565 89.6745 37.5703 89.043C38.3906 88.4115 39.5918 88.0957 41.1738 88.0957H43.5859V87.8125C43.5794 86.9401 43.3581 86.3086 42.9219 85.918C42.4857 85.5208 41.7891 85.3223 40.832 85.3223C40.2201 85.3223 39.6016 85.4102 38.9766 85.5859C38.3516 85.7617 37.7428 86.0189 37.1504 86.3574V84.5605C37.8145 84.3066 38.4492 84.1178 39.0547 83.9941C39.6667 83.8639 40.2591 83.7988 40.832 83.7988C41.737 83.7988 42.5085 83.9323 43.1465 84.1992C43.791 84.4661 44.3118 84.8665 44.709 85.4004C44.9564 85.7259 45.1322 86.1296 45.2363 86.6113C45.3405 87.0866 45.3926 87.8027 45.3926 88.7598ZM53.0977 80.957V84.0625H57.1797V85.459H53.0977V91.3965C53.0977 92.2038 53.2507 92.7669 53.5566 93.0859C53.8626 93.4049 54.3965 93.5645 55.1582 93.5645H57.1797V95H54.9824C53.6348 95 52.6842 94.7298 52.1309 94.1895C51.5775 93.6491 51.3008 92.7181 51.3008 91.3965V85.459H48.3809V84.0625H51.3008V80.957H53.0977ZM66.0078 89.502H65.4121C64.3639 89.502 63.5729 89.6875 63.0391 90.0586C62.5117 90.4232 62.248 90.9701 62.248 91.6992C62.248 92.3568 62.4466 92.8678 62.8438 93.2324C63.2409 93.597 63.791 93.7793 64.4941 93.7793C65.4837 93.7793 66.2617 93.4375 66.8281 92.7539C67.3945 92.0638 67.681 91.1133 67.6875 89.9023V89.502H66.0078ZM69.4941 88.7598V95H67.6875V93.3789C67.3034 94.0299 66.8184 94.5117 66.2324 94.8242C65.653 95.1302 64.9466 95.2832 64.1133 95.2832C63 95.2832 62.1113 94.9707 61.4473 94.3457C60.7832 93.7142 60.4512 92.8711 60.4512 91.8164C60.4512 90.599 60.8581 89.6745 61.6719 89.043C62.4922 88.4115 63.6934 88.0957 65.2754 88.0957H67.6875V87.8125C67.681 86.9401 67.4596 86.3086 67.0234 85.918C66.5872 85.5208 65.8906 85.3223 64.9336 85.3223C64.3216 85.3223 63.7031 85.4102 63.0781 85.5859C62.4531 85.7617 61.8444 86.0189 61.252 86.3574V84.5605C61.916 84.3066 62.5508 84.1178 63.1562 83.9941C63.7682 83.8639 64.3607 83.7988 64.9336 83.7988C65.8385 83.7988 66.61 83.9323 67.248 84.1992C67.8926 84.4661 68.4134 84.8665 68.8105 85.4004C69.0579 85.7259 69.2337 86.1296 69.3379 86.6113C69.4421 87.0866 69.4941 87.8027 69.4941 88.7598Z" fill="black"/>
<path d="M414.422 130.115C414.93 130.245 415.363 130.493 415.721 130.857C416.079 131.215 416.525 131.935 417.059 133.016L419.041 137H416.922L415.184 133.318C414.682 132.27 414.23 131.596 413.826 131.297C413.429 130.991 412.908 130.838 412.264 130.838H410.379V137H408.396V122.42H412.459C414.061 122.42 415.288 122.781 416.141 123.504C416.993 124.227 417.42 125.271 417.42 126.639C417.42 127.602 417.156 128.39 416.629 129.002C416.108 129.607 415.372 129.979 414.422 130.115ZM410.379 124.041V129.217H412.537C413.481 129.217 414.184 129.005 414.646 128.582C415.109 128.159 415.34 127.511 415.34 126.639C415.34 125.799 415.092 125.158 414.598 124.715C414.109 124.266 413.396 124.041 412.459 124.041H410.379ZM420.955 132.859V126.082H422.752V132.859C422.752 133.842 422.924 134.565 423.27 135.027C423.621 135.49 424.161 135.721 424.891 135.721C425.737 135.721 426.385 135.424 426.834 134.832C427.283 134.233 427.508 133.377 427.508 132.264V126.082H429.314V137H427.508V135.359C427.189 135.991 426.753 136.469 426.199 136.795C425.652 137.12 425.011 137.283 424.275 137.283C423.156 137.283 422.322 136.919 421.775 136.189C421.229 135.454 420.955 134.344 420.955 132.859ZM438.123 133.045C438.123 133.852 438.27 134.461 438.562 134.871C438.862 135.281 439.301 135.486 439.881 135.486H441.98V137H439.705C438.631 137 437.798 136.658 437.205 135.975C436.619 135.285 436.326 134.308 436.326 133.045V123.152H433.445V121.746H438.123V133.045ZM454.09 130.633V131.512H446.307V131.57C446.255 133.061 446.538 134.132 447.156 134.783C447.781 135.434 448.66 135.76 449.793 135.76C450.366 135.76 450.965 135.669 451.59 135.486C452.215 135.304 452.882 135.027 453.592 134.656V136.443C452.908 136.723 452.247 136.932 451.609 137.068C450.978 137.212 450.366 137.283 449.773 137.283C448.074 137.283 446.746 136.775 445.789 135.76C444.832 134.738 444.354 133.331 444.354 131.541C444.354 129.796 444.822 128.403 445.76 127.361C446.697 126.32 447.947 125.799 449.51 125.799C450.903 125.799 452 126.271 452.801 127.215C453.608 128.159 454.038 129.298 454.09 130.633ZM452.293 130.105C452.215 129.35 451.938 128.699 451.463 128.152C450.994 127.599 450.317 127.322 449.432 127.322C448.566 127.322 447.853 127.609 447.293 128.182C446.733 128.755 446.427 129.399 446.375 130.115L452.293 130.105ZM464.705 126.443V128.201C464.191 127.902 463.673 127.677 463.152 127.527C462.632 127.378 462.101 127.303 461.561 127.303C460.747 127.303 460.138 127.436 459.734 127.703C459.337 127.964 459.139 128.364 459.139 128.904C459.139 129.393 459.288 129.757 459.588 129.998C459.887 130.239 460.633 130.473 461.824 130.701L462.547 130.838C463.439 131.007 464.113 131.346 464.568 131.854C465.031 132.361 465.262 133.022 465.262 133.836C465.262 134.917 464.878 135.763 464.109 136.375C463.341 136.98 462.273 137.283 460.906 137.283C460.366 137.283 459.799 137.225 459.207 137.107C458.615 136.997 457.973 136.827 457.283 136.6V134.744C457.954 135.089 458.595 135.35 459.207 135.525C459.819 135.695 460.398 135.779 460.945 135.779C461.74 135.779 462.355 135.62 462.791 135.301C463.227 134.975 463.445 134.523 463.445 133.943C463.445 133.11 462.648 132.534 461.053 132.215L460.975 132.195L460.301 132.059C459.266 131.857 458.51 131.518 458.035 131.043C457.56 130.561 457.322 129.907 457.322 129.08C457.322 128.032 457.677 127.225 458.387 126.658C459.096 126.085 460.109 125.799 461.424 125.799C462.01 125.799 462.573 125.854 463.113 125.965C463.654 126.069 464.184 126.229 464.705 126.443Z" fill="black"/>
<path d="M120.32 17.5039H124.445L126.531 25.1797L128.605 17.5039H132.754V35H129.777V20.9844L127.926 28.6367H125.172L123.297 20.9844V35H120.32V17.5039ZM141.977 28.8359C140.695 28.8359 139.801 29 139.293 29.3281C138.785 29.6562 138.531 30.2188 138.531 31.0156C138.531 31.6094 138.707 32.082 139.059 32.4336C139.41 32.7852 139.887 32.9609 140.488 32.9609C141.395 32.9609 142.098 32.6211 142.598 31.9414C143.098 31.2539 143.348 30.2969 143.348 29.0703V28.8359H141.977ZM146.758 27.5117V35H143.348V33.5352C142.934 34.1133 142.402 34.5586 141.754 34.8711C141.105 35.1836 140.391 35.3398 139.609 35.3398C138.117 35.3398 136.953 34.9453 136.117 34.1562C135.289 33.3672 134.875 32.2656 134.875 30.8516C134.875 29.3203 135.371 28.1914 136.363 27.4648C137.355 26.7305 138.891 26.3633 140.969 26.3633H143.348V25.7891C143.348 25.2344 143.145 24.8164 142.738 24.5352C142.34 24.2461 141.75 24.1016 140.969 24.1016C140.148 24.1016 139.352 24.207 138.578 24.418C137.812 24.6211 137.012 24.9492 136.176 25.4023V22.4727C136.934 22.1602 137.703 21.9297 138.484 21.7812C139.266 21.6328 140.094 21.5586 140.969 21.5586C143.102 21.5586 144.598 21.9922 145.457 22.8594C146.324 23.7266 146.758 25.2773 146.758 27.5117ZM160.668 34.332C160.09 34.668 159.469 34.918 158.805 35.082C158.141 35.2539 157.426 35.3398 156.66 35.3398C154.637 35.3398 153.055 34.7305 151.914 33.5117C150.773 32.293 150.203 30.6055 150.203 28.4492C150.203 26.2852 150.777 24.5938 151.926 23.375C153.074 22.1484 154.66 21.5352 156.684 21.5352C157.387 21.5352 158.062 21.6172 158.711 21.7812C159.367 21.9453 160.02 22.1992 160.668 22.543V25.6836C160.168 25.2539 159.617 24.9258 159.016 24.6992C158.422 24.4648 157.805 24.3477 157.164 24.3477C156.047 24.3477 155.188 24.7031 154.586 25.4141C153.984 26.125 153.684 27.1367 153.684 28.4492C153.684 29.7617 153.984 30.7695 154.586 31.4727C155.188 32.1758 156.047 32.5273 157.164 32.5273C157.828 32.5273 158.449 32.418 159.027 32.1992C159.605 31.9727 160.152 31.6328 160.668 31.1797V34.332ZM175.246 26.4805V35H171.836V27.0078C171.836 26.0625 171.699 25.3867 171.426 24.9805C171.16 24.5742 170.723 24.3711 170.113 24.3711C169.488 24.3711 169 24.6484 168.648 25.2031C168.297 25.75 168.121 26.5117 168.121 27.4883V35H164.711V16.7656H168.121V23.8438C168.363 23.1172 168.777 22.5547 169.363 22.1562C169.949 21.7578 170.656 21.5586 171.484 21.5586C172.727 21.5586 173.664 21.9727 174.297 22.8008C174.93 23.6211 175.246 24.8477 175.246 26.4805ZM179.746 21.875H186.543V32.3633H190.809V35H178.832V32.3633H183.109V24.5117H179.746V21.875ZM183.109 15.4883H186.543V19.4961H183.109V15.4883ZM204.168 26.4805V35H200.758V27.0078C200.758 26.0547 200.621 25.375 200.348 24.9688C200.082 24.5547 199.645 24.3477 199.035 24.3477C198.418 24.3477 197.93 24.625 197.57 25.1797C197.219 25.7344 197.043 26.5039 197.043 27.4883V35H193.633V21.875H197.043V23.8438C197.285 23.1172 197.699 22.5547 198.285 22.1562C198.871 21.7578 199.578 21.5586 200.406 21.5586C201.648 21.5586 202.586 21.9727 203.219 22.8008C203.852 23.6211 204.168 24.8477 204.168 26.4805ZM218.992 34.3555C218.195 34.6836 217.383 34.9297 216.555 35.0938C215.727 35.2578 214.852 35.3398 213.93 35.3398C211.734 35.3398 210.055 34.7539 208.891 33.582C207.734 32.4023 207.156 30.707 207.156 28.4961C207.156 26.3555 207.715 24.6641 208.832 23.4219C209.949 22.1797 211.473 21.5586 213.402 21.5586C215.348 21.5586 216.855 22.1367 217.926 23.293C219.004 24.4414 219.543 26.0625 219.543 28.1562V29.5508H210.648C210.656 30.582 210.961 31.3516 211.562 31.8594C212.164 32.3672 213.062 32.6211 214.258 32.6211C215.047 32.6211 215.824 32.5078 216.59 32.2812C217.355 32.0547 218.156 31.6953 218.992 31.2031V34.3555ZM216.086 26.9727C216.07 26.0664 215.836 25.3828 215.383 24.9219C214.938 24.4531 214.277 24.2188 213.402 24.2188C212.613 24.2188 211.984 24.4609 211.516 24.9453C211.047 25.4219 210.77 26.1016 210.684 26.9844L216.086 26.9727ZM237.637 35V17.5039H241.094V31.9531H248.488V35H237.637ZM262.375 34.3555C261.578 34.6836 260.766 34.9297 259.938 35.0938C259.109 35.2578 258.234 35.3398 257.312 35.3398C255.117 35.3398 253.438 34.7539 252.273 33.582C251.117 32.4023 250.539 30.707 250.539 28.4961C250.539 26.3555 251.098 24.6641 252.215 23.4219C253.332 22.1797 254.855 21.5586 256.785 21.5586C258.73 21.5586 260.238 22.1367 261.309 23.293C262.387 24.4414 262.926 26.0625 262.926 28.1562V29.5508H254.031C254.039 30.582 254.344 31.3516 254.945 31.8594C255.547 32.3672 256.445 32.6211 257.641 32.6211C258.43 32.6211 259.207 32.5078 259.973 32.2812C260.738 32.0547 261.539 31.6953 262.375 31.2031V34.3555ZM259.469 26.9727C259.453 26.0664 259.219 25.3828 258.766 24.9219C258.32 24.4531 257.66 24.2188 256.785 24.2188C255.996 24.2188 255.367 24.4609 254.898 24.9453C254.43 25.4219 254.152 26.1016 254.066 26.9844L259.469 26.9727ZM272.125 28.8359C270.844 28.8359 269.949 29 269.441 29.3281C268.934 29.6562 268.68 30.2188 268.68 31.0156C268.68 31.6094 268.855 32.082 269.207 32.4336C269.559 32.7852 270.035 32.9609 270.637 32.9609C271.543 32.9609 272.246 32.6211 272.746 31.9414C273.246 31.2539 273.496 30.2969 273.496 29.0703V28.8359H272.125ZM276.906 27.5117V35H273.496V33.5352C273.082 34.1133 272.551 34.5586 271.902 34.8711C271.254 35.1836 270.539 35.3398 269.758 35.3398C268.266 35.3398 267.102 34.9453 266.266 34.1562C265.438 33.3672 265.023 32.2656 265.023 30.8516C265.023 29.3203 265.52 28.1914 266.512 27.4648C267.504 26.7305 269.039 26.3633 271.117 26.3633H273.496V25.7891C273.496 25.2344 273.293 24.8164 272.887 24.5352C272.488 24.2461 271.898 24.1016 271.117 24.1016C270.297 24.1016 269.5 24.207 268.727 24.418C267.961 24.6211 267.16 24.9492 266.324 25.4023V22.4727C267.082 22.1602 267.852 21.9297 268.633 21.7812C269.414 21.6328 270.242 21.5586 271.117 21.5586C273.25 21.5586 274.746 21.9922 275.605 22.8594C276.473 23.7266 276.906 25.2773 276.906 27.5117ZM291.871 25.4961C291.496 25.1523 291.055 24.8945 290.547 24.7227C290.047 24.5508 289.496 24.4648 288.895 24.4648C288.168 24.4648 287.531 24.5938 286.984 24.8516C286.445 25.1016 286.027 25.4688 285.73 25.9531C285.543 26.25 285.41 26.6094 285.332 27.0312C285.262 27.4531 285.227 28.0938 285.227 28.9531V35H281.793V21.875H285.227V23.9141C285.562 23.1641 286.078 22.5859 286.773 22.1797C287.469 21.7656 288.281 21.5586 289.211 21.5586C289.68 21.5586 290.137 21.6172 290.582 21.7344C291.035 21.8438 291.465 22.0078 291.871 22.2266V25.4961ZM305.395 26.4805V35H301.984V27.0078C301.984 26.0547 301.848 25.375 301.574 24.9688C301.309 24.5547 300.871 24.3477 300.262 24.3477C299.645 24.3477 299.156 24.625 298.797 25.1797C298.445 25.7344 298.27 26.5039 298.27 27.4883V35H294.859V21.875H298.27V23.8438C298.512 23.1172 298.926 22.5547 299.512 22.1562C300.098 21.7578 300.805 21.5586 301.633 21.5586C302.875 21.5586 303.812 21.9727 304.445 22.8008C305.078 23.6211 305.395 24.8477 305.395 26.4805ZM309.895 21.875H316.691V32.3633H320.957V35H308.98V32.3633H313.258V24.5117H309.895V21.875ZM313.258 15.4883H316.691V19.4961H313.258V15.4883ZM334.316 26.4805V35H330.906V27.0078C330.906 26.0547 330.77 25.375 330.496 24.9688C330.23 24.5547 329.793 24.3477 329.184 24.3477C328.566 24.3477 328.078 24.625 327.719 25.1797C327.367 25.7344 327.191 26.5039 327.191 27.4883V35H323.781V21.875H327.191V23.8438C327.434 23.1172 327.848 22.5547 328.434 22.1562C329.02 21.7578 329.727 21.5586 330.555 21.5586C331.797 21.5586 332.734 21.9727 333.367 22.8008C334 23.6211 334.316 24.8477 334.316 26.4805ZM345.637 28.2266C345.637 27.0547 345.414 26.1172 344.969 25.4141C344.523 24.7031 343.938 24.3477 343.211 24.3477C342.492 24.3477 341.91 24.6992 341.465 25.4023C341.027 26.1055 340.809 27.0469 340.809 28.2266C340.809 29.4141 341.027 30.3594 341.465 31.0625C341.91 31.7656 342.492 32.1172 343.211 32.1172C343.938 32.1172 344.523 31.7656 344.969 31.0625C345.414 30.3516 345.637 29.4062 345.637 28.2266ZM349.07 34.0156C349.07 36.1172 348.594 37.6328 347.641 38.5625C346.695 39.5 345.156 39.9688 343.023 39.9688C342.305 39.9688 341.594 39.9141 340.891 39.8047C340.188 39.7031 339.473 39.543 338.746 39.3242V36.1719C339.395 36.5312 340.055 36.7969 340.727 36.9688C341.398 37.1406 342.09 37.2266 342.801 37.2266C343.77 37.2266 344.484 36.9961 344.945 36.5352C345.406 36.082 345.637 35.3711 345.637 34.4023V32.9844C345.301 33.6094 344.855 34.0742 344.301 34.3789C343.746 34.6836 343.07 34.8359 342.273 34.8359C340.773 34.8359 339.582 34.25 338.699 33.0781C337.816 31.9062 337.375 30.3164 337.375 28.3086C337.375 26.2305 337.816 24.582 338.699 23.3633C339.582 22.1445 340.766 21.5352 342.25 21.5352C343 21.5352 343.668 21.7109 344.254 22.0625C344.84 22.4141 345.301 22.9102 345.637 23.5508V21.875H349.07V34.0156Z" fill="black"/>
<rect x="143" y="47" width="184" height="170" rx="9" fill="#FB9D36" stroke="black" stroke-width="2"/>
</svg>
