<svg width="499" height="230" viewBox="0 0 499 230" fill="none" xmlns="http://www.w3.org/2000/svg">
<rect width="499" height="230" fill="white"/>
<path d="M135.061 184.061C135.646 183.475 135.646 182.525 135.061 181.939L125.515 172.393C124.929 171.808 123.979 171.808 123.393 172.393C122.808 172.979 122.808 173.929 123.393 174.515L131.879 183L123.393 191.485C122.808 192.071 122.808 193.021 123.393 193.607C123.979 194.192 124.929 194.192 125.515 193.607L135.061 184.061ZM10 184.5L134 184.5V181.5L10 181.5V184.5Z" fill="black"/>
<path d="M29.0156 82.1582L26.9355 89.6191H31.0957L29.0156 82.1582ZM27.8242 80.4199H30.2168L34.6797 95H32.6387L31.5645 91.2012H26.457L25.4023 95H23.3613L27.8242 80.4199ZM45.3145 88.2227V95H43.5078V88.2227C43.5078 87.2396 43.3353 86.5169 42.9902 86.0547C42.6452 85.5924 42.1048 85.3613 41.3691 85.3613C40.5293 85.3613 39.8815 85.6608 39.4258 86.2598C38.9766 86.8522 38.752 87.7051 38.752 88.8184V95H36.9551V84.0625H38.752V85.7031C39.071 85.0781 39.5039 84.6061 40.0508 84.2871C40.5977 83.9616 41.2454 83.7988 41.9941 83.7988C43.1074 83.7988 43.9375 84.1667 44.4844 84.9023C45.0378 85.6315 45.3145 86.7383 45.3145 88.2227ZM56.6035 84.4434V86.2012C56.0892 85.9017 55.5716 85.6771 55.0508 85.5273C54.5299 85.3776 53.9993 85.3027 53.459 85.3027C52.6452 85.3027 52.0365 85.4362 51.6328 85.7031C51.2357 85.9635 51.0371 86.3639 51.0371 86.9043C51.0371 87.3926 51.1868 87.7572 51.4863 87.998C51.7858 88.2389 52.5312 88.4733 53.7227 88.7012L54.4453 88.8379C55.3372 89.0072 56.0111 89.3457 56.4668 89.8535C56.929 90.3613 57.1602 91.0221 57.1602 91.8359C57.1602 92.9167 56.776 93.763 56.0078 94.375C55.2396 94.9805 54.1719 95.2832 52.8047 95.2832C52.2643 95.2832 51.6979 95.2246 51.1055 95.1074C50.513 94.9967 49.8717 94.8275 49.1816 94.5996V92.7441C49.8522 93.0892 50.4935 93.3496 51.1055 93.5254C51.7174 93.6947 52.2969 93.7793 52.8438 93.7793C53.638 93.7793 54.2533 93.6198 54.6895 93.3008C55.1257 92.9753 55.3438 92.5228 55.3438 91.9434C55.3438 91.11 54.5462 90.5339 52.9512 90.2148L52.873 90.1953L52.1992 90.0586C51.1641 89.8568 50.4089 89.5182 49.9336 89.043C49.4583 88.5612 49.2207 87.9069 49.2207 87.0801C49.2207 86.0319 49.5755 85.2246 50.2852 84.6582C50.9948 84.0853 52.0072 83.7988 53.3223 83.7988C53.9082 83.7988 54.4714 83.8542 55.0117 83.9648C55.5521 84.069 56.0827 84.2285 56.6035 84.4434ZM59.1523 84.0625H60.9297L62.834 92.9004L64.3965 87.2559H65.9297L67.5117 92.9004L69.416 84.0625H71.1934L68.6348 95H66.916L65.168 89.0039L63.4297 95H61.7109L59.1523 84.0625ZM82.1406 88.6328V89.5117H74.3574V89.5703C74.3053 91.0612 74.5885 92.1322 75.207 92.7832C75.832 93.4342 76.7109 93.7598 77.8438 93.7598C78.4167 93.7598 79.0156 93.6686 79.6406 93.4863C80.2656 93.304 80.9329 93.0273 81.6426 92.6562V94.4434C80.959 94.7233 80.2982 94.9316 79.6602 95.0684C79.0286 95.2116 78.4167 95.2832 77.8242 95.2832C76.125 95.2832 74.7969 94.7754 73.8398 93.7598C72.8828 92.7376 72.4043 91.3314 72.4043 89.541C72.4043 87.7962 72.873 86.403 73.8105 85.3613C74.748 84.3197 75.998 83.7988 77.5605 83.7988C78.9538 83.7988 80.0508 84.2708 80.8516 85.2148C81.6589 86.1589 82.0885 87.2982 82.1406 88.6328ZM80.3438 88.1055C80.2656 87.3503 79.9889 86.6992 79.5137 86.1523C79.0449 85.599 78.3678 85.3223 77.4824 85.3223C76.6165 85.3223 75.9036 85.6087 75.3438 86.1816C74.7839 86.7546 74.4779 87.3991 74.4258 88.1152L80.3438 88.1055ZM94.5332 86.3184C94.1491 86.0189 93.7585 85.8008 93.3613 85.6641C92.9642 85.5273 92.528 85.459 92.0527 85.459C90.9329 85.459 90.0768 85.8105 89.4844 86.5137C88.8919 87.2168 88.5957 88.2324 88.5957 89.5605V95H86.7891V84.0625H88.5957V86.2012C88.8952 85.4264 89.3542 84.834 89.9727 84.4238C90.5977 84.0072 91.3366 83.7988 92.1895 83.7988C92.6322 83.7988 93.0456 83.8542 93.4297 83.9648C93.8138 84.0755 94.1816 84.248 94.5332 84.4824V86.3184ZM104.807 84.4434V86.2012C104.292 85.9017 103.775 85.6771 103.254 85.5273C102.733 85.3776 102.202 85.3027 101.662 85.3027C100.848 85.3027 100.24 85.4362 99.8359 85.7031C99.4388 85.9635 99.2402 86.3639 99.2402 86.9043C99.2402 87.3926 99.39 87.7572 99.6895 87.998C99.9889 88.2389 100.734 88.4733 101.926 88.7012L102.648 88.8379C103.54 89.0072 104.214 89.3457 104.67 89.8535C105.132 90.3613 105.363 91.0221 105.363 91.8359C105.363 92.9167 104.979 93.763 104.211 94.375C103.443 94.9805 102.375 95.2832 101.008 95.2832C100.467 95.2832 99.901 95.2246 99.3086 95.1074C98.7161 94.9967 98.0749 94.8275 97.3848 94.5996V92.7441C98.0553 93.0892 98.6966 93.3496 99.3086 93.5254C99.9206 93.6947 100.5 93.7793 101.047 93.7793C101.841 93.7793 102.456 93.6198 102.893 93.3008C103.329 92.9753 103.547 92.5228 103.547 91.9434C103.547 91.11 102.749 90.5339 101.154 90.2148L101.076 90.1953L100.402 90.0586C99.3672 89.8568 98.612 89.5182 98.1367 89.043C97.6615 88.5612 97.4238 87.9069 97.4238 87.0801C97.4238 86.0319 97.7786 85.2246 98.4883 84.6582C99.1979 84.0853 100.21 83.7988 101.525 83.7988C102.111 83.7988 102.674 83.8542 103.215 83.9648C103.755 84.069 104.286 84.2285 104.807 84.4434Z" fill="#C586C0"/>
<path d="M135.061 104.061C135.646 103.475 135.646 102.525 135.061 101.939L125.515 92.3934C124.929 91.8076 123.979 91.8076 123.393 92.3934C122.808 92.9792 122.808 93.9289 123.393 94.5147L131.879 103L123.393 111.485C122.808 112.071 122.808 113.021 123.393 113.607C123.979 114.192 124.929 114.192 125.515 113.607L135.061 104.061ZM10 104.5L134 104.5V101.5L10 101.5V104.5Z" fill="black"/>
<path d="M398.061 133.061C398.646 132.475 398.646 131.525 398.061 130.939L388.515 121.393C387.929 120.808 386.979 120.808 386.393 121.393C385.808 121.979 385.808 122.929 386.393 123.515L394.879 132L386.393 140.485C385.808 141.071 385.808 142.021 386.393 142.607C386.979 143.192 387.929 143.192 388.515 142.607L398.061 133.061ZM338 133.5H397V130.5H338V133.5Z" fill="black"/>
<path d="M27.2578 173.379C28.918 173.379 30.0768 172.972 30.7344 172.158C31.3919 171.338 31.7207 169.86 31.7207 167.725C31.7207 165.57 31.3919 164.085 30.7344 163.271C30.0833 162.451 28.9245 162.041 27.2578 162.041H26.3203V173.379H27.2578ZM27.2969 160.42C29.5234 160.42 31.1641 161.012 32.2188 162.197C33.2734 163.382 33.8008 165.225 33.8008 167.725C33.8008 170.212 33.2734 172.048 32.2188 173.232C31.1641 174.411 29.5234 175 27.2969 175H24.3379V160.42H27.2969ZM41.9062 169.502H41.3105C40.2624 169.502 39.4714 169.688 38.9375 170.059C38.4102 170.423 38.1465 170.97 38.1465 171.699C38.1465 172.357 38.3451 172.868 38.7422 173.232C39.1393 173.597 39.6895 173.779 40.3926 173.779C41.3822 173.779 42.1602 173.438 42.7266 172.754C43.293 172.064 43.5794 171.113 43.5859 169.902V169.502H41.9062ZM45.3926 168.76V175H43.5859V173.379C43.2018 174.03 42.7168 174.512 42.1309 174.824C41.5514 175.13 40.8451 175.283 40.0117 175.283C38.8984 175.283 38.0098 174.971 37.3457 174.346C36.6816 173.714 36.3496 172.871 36.3496 171.816C36.3496 170.599 36.7565 169.674 37.5703 169.043C38.3906 168.411 39.5918 168.096 41.1738 168.096H43.5859V167.812C43.5794 166.94 43.3581 166.309 42.9219 165.918C42.4857 165.521 41.7891 165.322 40.832 165.322C40.2201 165.322 39.6016 165.41 38.9766 165.586C38.3516 165.762 37.7428 166.019 37.1504 166.357V164.561C37.8145 164.307 38.4492 164.118 39.0547 163.994C39.6667 163.864 40.2591 163.799 40.832 163.799C41.737 163.799 42.5085 163.932 43.1465 164.199C43.791 164.466 44.3118 164.867 44.709 165.4C44.9564 165.726 45.1322 166.13 45.2363 166.611C45.3405 167.087 45.3926 167.803 45.3926 168.76ZM53.0977 160.957V164.062H57.1797V165.459H53.0977V171.396C53.0977 172.204 53.2507 172.767 53.5566 173.086C53.8626 173.405 54.3965 173.564 55.1582 173.564H57.1797V175H54.9824C53.6348 175 52.6842 174.73 52.1309 174.189C51.5775 173.649 51.3008 172.718 51.3008 171.396V165.459H48.3809V164.062H51.3008V160.957H53.0977ZM66.0078 169.502H65.4121C64.3639 169.502 63.5729 169.688 63.0391 170.059C62.5117 170.423 62.248 170.97 62.248 171.699C62.248 172.357 62.4466 172.868 62.8438 173.232C63.2409 173.597 63.791 173.779 64.4941 173.779C65.4837 173.779 66.2617 173.438 66.8281 172.754C67.3945 172.064 67.681 171.113 67.6875 169.902V169.502H66.0078ZM69.4941 168.76V175H67.6875V173.379C67.3034 174.03 66.8184 174.512 66.2324 174.824C65.653 175.13 64.9466 175.283 64.1133 175.283C63 175.283 62.1113 174.971 61.4473 174.346C60.7832 173.714 60.4512 172.871 60.4512 171.816C60.4512 170.599 60.8581 169.674 61.6719 169.043C62.4922 168.411 63.6934 168.096 65.2754 168.096H67.6875V167.812C67.681 166.94 67.4596 166.309 67.0234 165.918C66.5872 165.521 65.8906 165.322 64.9336 165.322C64.3216 165.322 63.7031 165.41 63.0781 165.586C62.4531 165.762 61.8444 166.019 61.252 166.357V164.561C61.916 164.307 62.5508 164.118 63.1562 163.994C63.7682 163.864 64.3607 163.799 64.9336 163.799C65.8385 163.799 66.61 163.932 67.248 164.199C67.8926 164.466 68.4134 164.867 68.8105 165.4C69.0579 165.726 69.2337 166.13 69.3379 166.611C69.4421 167.087 69.4941 167.803 69.4941 168.76Z" fill="#FB9D36"/>
<path d="M414.422 130.115C414.93 130.245 415.363 130.493 415.721 130.857C416.079 131.215 416.525 131.935 417.059 133.016L419.041 137H416.922L415.184 133.318C414.682 132.27 414.23 131.596 413.826 131.297C413.429 130.991 412.908 130.838 412.264 130.838H410.379V137H408.396V122.42H412.459C414.061 122.42 415.288 122.781 416.141 123.504C416.993 124.227 417.42 125.271 417.42 126.639C417.42 127.602 417.156 128.39 416.629 129.002C416.108 129.607 415.372 129.979 414.422 130.115ZM410.379 124.041V129.217H412.537C413.481 129.217 414.184 129.005 414.646 128.582C415.109 128.159 415.34 127.511 415.34 126.639C415.34 125.799 415.092 125.158 414.598 124.715C414.109 124.266 413.396 124.041 412.459 124.041H410.379ZM420.955 132.859V126.082H422.752V132.859C422.752 133.842 422.924 134.565 423.27 135.027C423.621 135.49 424.161 135.721 424.891 135.721C425.737 135.721 426.385 135.424 426.834 134.832C427.283 134.233 427.508 133.377 427.508 132.264V126.082H429.314V137H427.508V135.359C427.189 135.991 426.753 136.469 426.199 136.795C425.652 137.12 425.011 137.283 424.275 137.283C423.156 137.283 422.322 136.919 421.775 136.189C421.229 135.454 420.955 134.344 420.955 132.859ZM438.123 133.045C438.123 133.852 438.27 134.461 438.562 134.871C438.862 135.281 439.301 135.486 439.881 135.486H441.98V137H439.705C438.631 137 437.798 136.658 437.205 135.975C436.619 135.285 436.326 134.308 436.326 133.045V123.152H433.445V121.746H438.123V133.045ZM454.09 130.633V131.512H446.307V131.57C446.255 133.061 446.538 134.132 447.156 134.783C447.781 135.434 448.66 135.76 449.793 135.76C450.366 135.76 450.965 135.669 451.59 135.486C452.215 135.304 452.882 135.027 453.592 134.656V136.443C452.908 136.723 452.247 136.932 451.609 137.068C450.978 137.212 450.366 137.283 449.773 137.283C448.074 137.283 446.746 136.775 445.789 135.76C444.832 134.738 444.354 133.331 444.354 131.541C444.354 129.796 444.822 128.403 445.76 127.361C446.697 126.32 447.947 125.799 449.51 125.799C450.903 125.799 452 126.271 452.801 127.215C453.608 128.159 454.038 129.298 454.09 130.633ZM452.293 130.105C452.215 129.35 451.938 128.699 451.463 128.152C450.994 127.599 450.317 127.322 449.432 127.322C448.566 127.322 447.853 127.609 447.293 128.182C446.733 128.755 446.427 129.399 446.375 130.115L452.293 130.105ZM464.705 126.443V128.201C464.191 127.902 463.673 127.677 463.152 127.527C462.632 127.378 462.101 127.303 461.561 127.303C460.747 127.303 460.138 127.436 459.734 127.703C459.337 127.964 459.139 128.364 459.139 128.904C459.139 129.393 459.288 129.757 459.588 129.998C459.887 130.239 460.633 130.473 461.824 130.701L462.547 130.838C463.439 131.007 464.113 131.346 464.568 131.854C465.031 132.361 465.262 133.022 465.262 133.836C465.262 134.917 464.878 135.763 464.109 136.375C463.341 136.98 462.273 137.283 460.906 137.283C460.366 137.283 459.799 137.225 459.207 137.107C458.615 136.997 457.973 136.827 457.283 136.6V134.744C457.954 135.089 458.595 135.35 459.207 135.525C459.819 135.695 460.398 135.779 460.945 135.779C461.74 135.779 462.355 135.62 462.791 135.301C463.227 134.975 463.445 134.523 463.445 133.943C463.445 133.11 462.648 132.534 461.053 132.215L460.975 132.195L460.301 132.059C459.266 131.857 458.51 131.518 458.035 131.043C457.56 130.561 457.322 129.907 457.322 129.08C457.322 128.032 457.677 127.225 458.387 126.658C459.096 126.085 460.109 125.799 461.424 125.799C462.01 125.799 462.573 125.854 463.113 125.965C463.654 126.069 464.184 126.229 464.705 126.443Z" fill="#9CDCFE"/>
<path d="M120.32 17.5039H124.445L126.531 25.1797L128.605 17.5039H132.754V35H129.777V20.9844L127.926 28.6367H125.172L123.297 20.9844V35H120.32V17.5039ZM141.977 28.8359C140.695 28.8359 139.801 29 139.293 29.3281C138.785 29.6562 138.531 30.2188 138.531 31.0156C138.531 31.6094 138.707 32.082 139.059 32.4336C139.41 32.7852 139.887 32.9609 140.488 32.9609C141.395 32.9609 142.098 32.6211 142.598 31.9414C143.098 31.2539 143.348 30.2969 143.348 29.0703V28.8359H141.977ZM146.758 27.5117V35H143.348V33.5352C142.934 34.1133 142.402 34.5586 141.754 34.8711C141.105 35.1836 140.391 35.3398 139.609 35.3398C138.117 35.3398 136.953 34.9453 136.117 34.1562C135.289 33.3672 134.875 32.2656 134.875 30.8516C134.875 29.3203 135.371 28.1914 136.363 27.4648C137.355 26.7305 138.891 26.3633 140.969 26.3633H143.348V25.7891C143.348 25.2344 143.145 24.8164 142.738 24.5352C142.34 24.2461 141.75 24.1016 140.969 24.1016C140.148 24.1016 139.352 24.207 138.578 24.418C137.812 24.6211 137.012 24.9492 136.176 25.4023V22.4727C136.934 22.1602 137.703 21.9297 138.484 21.7812C139.266 21.6328 140.094 21.5586 140.969 21.5586C143.102 21.5586 144.598 21.9922 145.457 22.8594C146.324 23.7266 146.758 25.2773 146.758 27.5117ZM160.668 34.332C160.09 34.668 159.469 34.918 158.805 35.082C158.141 35.2539 157.426 35.3398 156.66 35.3398C154.637 35.3398 153.055 34.7305 151.914 33.5117C150.773 32.293 150.203 30.6055 150.203 28.4492C150.203 26.2852 150.777 24.5938 151.926 23.375C153.074 22.1484 154.66 21.5352 156.684 21.5352C157.387 21.5352 158.062 21.6172 158.711 21.7812C159.367 21.9453 160.02 22.1992 160.668 22.543V25.6836C160.168 25.2539 159.617 24.9258 159.016 24.6992C158.422 24.4648 157.805 24.3477 157.164 24.3477C156.047 24.3477 155.188 24.7031 154.586 25.4141C153.984 26.125 153.684 27.1367 153.684 28.4492C153.684 29.7617 153.984 30.7695 154.586 31.4727C155.188 32.1758 156.047 32.5273 157.164 32.5273C157.828 32.5273 158.449 32.418 159.027 32.1992C159.605 31.9727 160.152 31.6328 160.668 31.1797V34.332ZM175.246 26.4805V35H171.836V27.0078C171.836 26.0625 171.699 25.3867 171.426 24.9805C171.16 24.5742 170.723 24.3711 170.113 24.3711C169.488 24.3711 169 24.6484 168.648 25.2031C168.297 25.75 168.121 26.5117 168.121 27.4883V35H164.711V16.7656H168.121V23.8438C168.363 23.1172 168.777 22.5547 169.363 22.1562C169.949 21.7578 170.656 21.5586 171.484 21.5586C172.727 21.5586 173.664 21.9727 174.297 22.8008C174.93 23.6211 175.246 24.8477 175.246 26.4805ZM179.746 21.875H186.543V32.3633H190.809V35H178.832V32.3633H183.109V24.5117H179.746V21.875ZM183.109 15.4883H186.543V19.4961H183.109V15.4883ZM204.168 26.4805V35H200.758V27.0078C200.758 26.0547 200.621 25.375 200.348 24.9688C200.082 24.5547 199.645 24.3477 199.035 24.3477C198.418 24.3477 197.93 24.625 197.57 25.1797C197.219 25.7344 197.043 26.5039 197.043 27.4883V35H193.633V21.875H197.043V23.8438C197.285 23.1172 197.699 22.5547 198.285 22.1562C198.871 21.7578 199.578 21.5586 200.406 21.5586C201.648 21.5586 202.586 21.9727 203.219 22.8008C203.852 23.6211 204.168 24.8477 204.168 26.4805ZM218.992 34.3555C218.195 34.6836 217.383 34.9297 216.555 35.0938C215.727 35.2578 214.852 35.3398 213.93 35.3398C211.734 35.3398 210.055 34.7539 208.891 33.582C207.734 32.4023 207.156 30.707 207.156 28.4961C207.156 26.3555 207.715 24.6641 208.832 23.4219C209.949 22.1797 211.473 21.5586 213.402 21.5586C215.348 21.5586 216.855 22.1367 217.926 23.293C219.004 24.4414 219.543 26.0625 219.543 28.1562V29.5508H210.648C210.656 30.582 210.961 31.3516 211.562 31.8594C212.164 32.3672 213.062 32.6211 214.258 32.6211C215.047 32.6211 215.824 32.5078 216.59 32.2812C217.355 32.0547 218.156 31.6953 218.992 31.2031V34.3555ZM216.086 26.9727C216.07 26.0664 215.836 25.3828 215.383 24.9219C214.938 24.4531 214.277 24.2188 213.402 24.2188C212.613 24.2188 211.984 24.4609 211.516 24.9453C211.047 25.4219 210.77 26.1016 210.684 26.9844L216.086 26.9727ZM237.637 35V17.5039H241.094V31.9531H248.488V35H237.637ZM262.375 34.3555C261.578 34.6836 260.766 34.9297 259.938 35.0938C259.109 35.2578 258.234 35.3398 257.312 35.3398C255.117 35.3398 253.438 34.7539 252.273 33.582C251.117 32.4023 250.539 30.707 250.539 28.4961C250.539 26.3555 251.098 24.6641 252.215 23.4219C253.332 22.1797 254.855 21.5586 256.785 21.5586C258.73 21.5586 260.238 22.1367 261.309 23.293C262.387 24.4414 262.926 26.0625 262.926 28.1562V29.5508H254.031C254.039 30.582 254.344 31.3516 254.945 31.8594C255.547 32.3672 256.445 32.6211 257.641 32.6211C258.43 32.6211 259.207 32.5078 259.973 32.2812C260.738 32.0547 261.539 31.6953 262.375 31.2031V34.3555ZM259.469 26.9727C259.453 26.0664 259.219 25.3828 258.766 24.9219C258.32 24.4531 257.66 24.2188 256.785 24.2188C255.996 24.2188 255.367 24.4609 254.898 24.9453C254.43 25.4219 254.152 26.1016 254.066 26.9844L259.469 26.9727ZM272.125 28.8359C270.844 28.8359 269.949 29 269.441 29.3281C268.934 29.6562 268.68 30.2188 268.68 31.0156C268.68 31.6094 268.855 32.082 269.207 32.4336C269.559 32.7852 270.035 32.9609 270.637 32.9609C271.543 32.9609 272.246 32.6211 272.746 31.9414C273.246 31.2539 273.496 30.2969 273.496 29.0703V28.8359H272.125ZM276.906 27.5117V35H273.496V33.5352C273.082 34.1133 272.551 34.5586 271.902 34.8711C271.254 35.1836 270.539 35.3398 269.758 35.3398C268.266 35.3398 267.102 34.9453 266.266 34.1562C265.438 33.3672 265.023 32.2656 265.023 30.8516C265.023 29.3203 265.52 28.1914 266.512 27.4648C267.504 26.7305 269.039 26.3633 271.117 26.3633H273.496V25.7891C273.496 25.2344 273.293 24.8164 272.887 24.5352C272.488 24.2461 271.898 24.1016 271.117 24.1016C270.297 24.1016 269.5 24.207 268.727 24.418C267.961 24.6211 267.16 24.9492 266.324 25.4023V22.4727C267.082 22.1602 267.852 21.9297 268.633 21.7812C269.414 21.6328 270.242 21.5586 271.117 21.5586C273.25 21.5586 274.746 21.9922 275.605 22.8594C276.473 23.7266 276.906 25.2773 276.906 27.5117ZM291.871 25.4961C291.496 25.1523 291.055 24.8945 290.547 24.7227C290.047 24.5508 289.496 24.4648 288.895 24.4648C288.168 24.4648 287.531 24.5938 286.984 24.8516C286.445 25.1016 286.027 25.4688 285.73 25.9531C285.543 26.25 285.41 26.6094 285.332 27.0312C285.262 27.4531 285.227 28.0938 285.227 28.9531V35H281.793V21.875H285.227V23.9141C285.562 23.1641 286.078 22.5859 286.773 22.1797C287.469 21.7656 288.281 21.5586 289.211 21.5586C289.68 21.5586 290.137 21.6172 290.582 21.7344C291.035 21.8438 291.465 22.0078 291.871 22.2266V25.4961ZM305.395 26.4805V35H301.984V27.0078C301.984 26.0547 301.848 25.375 301.574 24.9688C301.309 24.5547 300.871 24.3477 300.262 24.3477C299.645 24.3477 299.156 24.625 298.797 25.1797C298.445 25.7344 298.27 26.5039 298.27 27.4883V35H294.859V21.875H298.27V23.8438C298.512 23.1172 298.926 22.5547 299.512 22.1562C300.098 21.7578 300.805 21.5586 301.633 21.5586C302.875 21.5586 303.812 21.9727 304.445 22.8008C305.078 23.6211 305.395 24.8477 305.395 26.4805ZM309.895 21.875H316.691V32.3633H320.957V35H308.98V32.3633H313.258V24.5117H309.895V21.875ZM313.258 15.4883H316.691V19.4961H313.258V15.4883ZM334.316 26.4805V35H330.906V27.0078C330.906 26.0547 330.77 25.375 330.496 24.9688C330.23 24.5547 329.793 24.3477 329.184 24.3477C328.566 24.3477 328.078 24.625 327.719 25.1797C327.367 25.7344 327.191 26.5039 327.191 27.4883V35H323.781V21.875H327.191V23.8438C327.434 23.1172 327.848 22.5547 328.434 22.1562C329.02 21.7578 329.727 21.5586 330.555 21.5586C331.797 21.5586 332.734 21.9727 333.367 22.8008C334 23.6211 334.316 24.8477 334.316 26.4805ZM345.637 28.2266C345.637 27.0547 345.414 26.1172 344.969 25.4141C344.523 24.7031 343.938 24.3477 343.211 24.3477C342.492 24.3477 341.91 24.6992 341.465 25.4023C341.027 26.1055 340.809 27.0469 340.809 28.2266C340.809 29.4141 341.027 30.3594 341.465 31.0625C341.91 31.7656 342.492 32.1172 343.211 32.1172C343.938 32.1172 344.523 31.7656 344.969 31.0625C345.414 30.3516 345.637 29.4062 345.637 28.2266ZM349.07 34.0156C349.07 36.1172 348.594 37.6328 347.641 38.5625C346.695 39.5 345.156 39.9688 343.023 39.9688C342.305 39.9688 341.594 39.9141 340.891 39.8047C340.188 39.7031 339.473 39.543 338.746 39.3242V36.1719C339.395 36.5312 340.055 36.7969 340.727 36.9688C341.398 37.1406 342.09 37.2266 342.801 37.2266C343.77 37.2266 344.484 36.9961 344.945 36.5352C345.406 36.082 345.637 35.3711 345.637 34.4023V32.9844C345.301 33.6094 344.855 34.0742 344.301 34.3789C343.746 34.6836 343.07 34.8359 342.273 34.8359C340.773 34.8359 339.582 34.25 338.699 33.0781C337.816 31.9062 337.375 30.3164 337.375 28.3086C337.375 26.2305 337.816 24.582 338.699 23.3633C339.582 22.1445 340.766 21.5352 342.25 21.5352C343 21.5352 343.668 21.7109 344.254 22.0625C344.84 22.4141 345.301 22.9102 345.637 23.5508V21.875H349.07V34.0156Z" fill="black"/>
<rect x="143" y="47" width="184" height="170" rx="9" fill="#CE9178" stroke="black" stroke-width="2"/>
</svg>
